<svg width="274" height="269" viewBox="0 0 274 269" fill="none" xmlns="http://www.w3.org/2000/svg">
<path d="M134.04 268.708C208.068 268.708 268.08 236.072 268.08 195.814C268.08 155.556 208.068 122.92 134.04 122.92C60.0117 122.92 0 155.556 0 195.814C0 236.072 60.0117 268.708 134.04 268.708Z" fill="#F5F5F5"/>
<path d="M257.04 191.638L251.01 189.172C250.252 183.96 249.816 178.706 249.702 173.44C249.702 163.588 255.84 151.54 263.628 153.556C271.416 155.572 261.432 166.594 259.812 175.108C258.192 183.622 257.04 191.638 257.04 191.638Z" fill="#06576D"/>
<path opacity="0.3" d="M257.04 191.638L251.01 189.172C250.252 183.96 249.816 178.706 249.702 173.44C249.702 163.588 255.84 151.54 263.628 153.556C271.416 155.572 261.432 166.594 259.812 175.108C258.192 183.622 257.04 191.638 257.04 191.638Z" fill="black"/>
<path d="M254.118 190.876C254.184 190.867 254.244 190.832 254.284 190.78C254.325 190.727 254.343 190.66 254.334 190.594C251.46 168.994 261.174 156.994 261.27 156.892C261.313 156.84 261.334 156.774 261.327 156.707C261.321 156.64 261.289 156.578 261.237 156.535C261.185 156.492 261.119 156.471 261.052 156.478C260.985 156.484 260.923 156.516 260.88 156.568C260.784 156.688 250.926 168.832 253.83 190.66C253.834 190.693 253.845 190.725 253.862 190.754C253.879 190.783 253.902 190.808 253.929 190.829C253.955 190.849 253.986 190.863 254.019 190.871C254.051 190.88 254.085 190.881 254.118 190.876Z" fill="white"/>
<path d="M260.136 193.078L256.986 191.65C256.043 186.797 256.186 181.795 257.406 177.004C259.428 169.24 266.16 164.452 269.55 165.244C273.696 166.21 274.098 170.044 272.886 172.714C271.44 175.876 261.468 184.438 260.136 193.078Z" fill="#06576D"/>
<path opacity="0.1" d="M260.136 193.078L256.986 191.65C256.043 186.797 256.186 181.795 257.406 177.004C259.428 169.24 266.16 164.452 269.55 165.244C273.696 166.21 274.098 170.044 272.886 172.714C271.44 175.876 261.468 184.438 260.136 193.078Z" fill="black"/>
<path d="M258.498 192.58C258.566 192.573 258.627 192.539 258.67 192.486C258.713 192.433 258.733 192.366 258.726 192.298C257.31 178.594 269.268 168.058 269.394 167.956C269.44 167.907 269.465 167.843 269.465 167.776C269.465 167.709 269.44 167.645 269.394 167.596C269.371 167.572 269.343 167.553 269.312 167.54C269.281 167.527 269.248 167.52 269.214 167.52C269.181 167.52 269.147 167.527 269.116 167.54C269.086 167.553 269.058 167.572 269.034 167.596C268.908 167.704 256.758 178.396 258.192 192.376C258.207 192.443 258.247 192.502 258.304 192.54C258.361 192.578 258.431 192.593 258.498 192.58Z" fill="white"/>
<path d="M225.138 200.932L219.546 200.29L218.1 189.022L224.934 191.05L225.138 200.932Z" fill="#B16668"/>
<path d="M212.886 210.124C212.805 210.346 212.772 210.583 212.789 210.818C212.805 211.054 212.871 211.283 212.982 211.492C213.582 212.188 215.13 213.004 217.242 213.154C219.264 213.298 221.064 213.028 222.246 212.278C222.76 212.012 223.2 211.623 223.527 211.146C223.853 210.668 224.057 210.117 224.118 209.542C224.232 208.396 224.118 207.286 224.652 206.404C225.186 205.522 225.96 204.664 226.134 204.22C226.342 203.454 226.342 202.646 226.134 201.88L212.886 210.124Z" fill="#263238"/>
<path d="M218.412 200.092C218.394 200.527 218.315 200.957 218.178 201.37C217.869 202.259 217.454 203.107 216.942 203.896C216.691 204.315 216.41 204.716 216.102 205.096C215.502 205.822 214.734 206.422 214.086 207.118C213.399 207.774 212.958 208.647 212.838 209.59C212.754 211.174 215.274 211.714 216.6 211.948C218.03 212.198 219.498 212.124 220.896 211.732C221.63 211.541 222.293 211.142 222.806 210.583C223.319 210.025 223.66 209.33 223.788 208.582C223.866 208.138 223.836 207.688 223.89 207.25C224.065 206.239 224.487 205.286 225.12 204.478C225.488 204.012 225.803 203.507 226.062 202.972C226.476 201.994 226.146 200.89 225.882 199.918C225.654 199.072 225.378 198.118 225.078 198.184C225.078 198.622 225.078 198.682 224.784 198.976C224.49 199.27 224.376 199.918 223.956 200.248C224.09 199.882 224.188 199.505 224.25 199.12C224.276 198.966 224.244 198.808 224.16 198.676C224.021 198.551 223.854 198.461 223.674 198.412C223.05 198.203 222.407 198.057 221.754 197.974C220.863 197.872 219.963 197.872 219.072 197.974C218.886 198.007 218.718 198.105 218.598 198.25C218.49 198.41 218.432 198.597 218.43 198.79C218.4 199.018 218.424 199.672 218.412 200.092Z" fill="#455A64"/>
<path d="M216.726 204.232C217.326 203.788 219.444 203.782 220.164 203.86C220.898 203.923 221.604 204.17 222.216 204.58C222.306 204.644 222.415 204.674 222.525 204.665C222.635 204.657 222.738 204.609 222.816 204.532C222.862 204.487 222.897 204.433 222.919 204.373C222.942 204.313 222.951 204.249 222.946 204.185C222.942 204.121 222.924 204.059 222.893 204.003C222.862 203.947 222.819 203.898 222.768 203.86C222.096 203.364 221.297 203.066 220.464 203.002C219.425 202.926 218.38 202.986 217.356 203.182C217.356 203.182 216.552 203.704 216.726 204.232Z" fill="#F5F5F5"/>
<path d="M215.37 205.876C216.114 205.438 218.37 205.498 219.096 205.576C219.816 205.65 220.503 205.913 221.088 206.338C221.178 206.401 221.287 206.43 221.397 206.422C221.506 206.413 221.609 206.366 221.688 206.29C221.733 206.245 221.769 206.191 221.791 206.131C221.814 206.071 221.823 206.007 221.818 205.943C221.814 205.879 221.795 205.817 221.765 205.761C221.734 205.705 221.691 205.656 221.64 205.618C220.656 205.108 219.582 204.794 218.478 204.694C216.678 204.568 216.24 204.928 216.24 204.928C216.034 205.011 215.848 205.14 215.698 205.304C215.547 205.468 215.435 205.663 215.37 205.876Z" fill="#F5F5F5"/>
<path d="M221.172 201.304C220.157 201.188 219.129 201.251 218.136 201.49C217.824 201.664 217.614 202.162 217.818 202.288C218.725 202.043 219.665 201.95 220.602 202.012C221.267 202.079 221.916 202.257 222.522 202.54C222.678 202.612 222.858 202.702 223.014 202.792C223.064 202.824 223.121 202.845 223.179 202.853C223.238 202.861 223.298 202.856 223.355 202.839C223.412 202.822 223.465 202.793 223.509 202.754C223.554 202.715 223.59 202.666 223.614 202.612C223.657 202.524 223.665 202.422 223.637 202.328C223.61 202.234 223.548 202.153 223.464 202.102C222.766 201.675 221.984 201.403 221.172 201.304Z" fill="#F5F5F5"/>
<path d="M204.288 195.808L198.972 194.326V183.58L205.566 183.868L204.288 195.808Z" fill="#B16668"/>
<path d="M187.74 201.562C187.59 202.025 187.618 202.528 187.818 202.972C188.016 203.38 190.17 204.598 193.074 204.4C195.225 204.246 197.296 203.521 199.074 202.3C200.178 201.568 201.33 201.43 202.77 201.352C204.21 201.274 206.094 200.548 206.412 199.876C206.574 199.274 206.557 198.638 206.364 198.046L187.74 201.562Z" fill="#263238"/>
<path d="M199.44 192.502L199.212 192.454C199.086 192.424 198.954 192.424 198.828 192.454C198.688 192.5 198.564 192.583 198.468 192.694C198.185 193.059 197.938 193.451 197.73 193.864C197.13 194.854 195.84 195.664 194.448 196.426C193.5 196.936 192.57 197.332 191.592 197.77C190.614 198.208 189.264 198.496 188.484 199.024C187.344 199.792 187.194 201.718 188.484 202.48C189.6 203.14 192.552 203.854 195.642 202.978C197.322 202.498 199.194 200.704 201.402 200.53C202.806 200.416 205.464 200.026 206.37 198.958C206.706 198.484 206.256 196.984 205.89 195.688C205.488 194.272 205.11 192.088 204.642 192.19C204.646 192.291 204.626 192.392 204.583 192.484C204.54 192.576 204.476 192.656 204.396 192.718C204.222 192.898 203.988 193.012 203.796 193.174C203.468 193.496 203.204 193.877 203.016 194.296C202.94 194.483 202.799 194.636 202.62 194.728C202.38 194.812 202.206 194.668 202.02 194.572C201.756 194.451 201.458 194.43 201.18 194.512C201.209 194.231 201.259 193.952 201.33 193.678C201.357 193.592 201.357 193.5 201.33 193.414C201.296 193.327 201.232 193.255 201.15 193.21C200.636 192.857 200.053 192.616 199.44 192.502Z" fill="#455A64"/>
<path d="M195.78 195.64C195.88 195.446 196.028 195.28 196.21 195.159C196.391 195.037 196.6 194.963 196.818 194.944C197.454 194.824 198.582 195.298 199.284 195.874C199.351 195.927 199.404 195.997 199.438 196.075C199.472 196.154 199.486 196.24 199.478 196.325C199.471 196.411 199.443 196.493 199.397 196.565C199.35 196.637 199.287 196.696 199.212 196.738C199.118 196.791 199.009 196.814 198.901 196.802C198.794 196.79 198.692 196.745 198.612 196.672C197.838 195.974 196.822 195.604 195.78 195.64Z" fill="#F5F5F5"/>
<path d="M193.794 196.75C193.933 196.553 194.118 196.393 194.332 196.282C194.546 196.172 194.783 196.114 195.024 196.114C196.011 196.157 196.958 196.512 197.73 197.128C197.793 197.181 197.843 197.248 197.874 197.324C197.906 197.4 197.919 197.482 197.912 197.564C197.905 197.646 197.878 197.725 197.834 197.794C197.79 197.863 197.729 197.921 197.658 197.962C197.565 198.018 197.455 198.042 197.347 198.03C197.239 198.018 197.137 197.971 197.058 197.896C196.634 197.474 196.12 197.152 195.556 196.954C194.991 196.756 194.389 196.686 193.794 196.75Z" fill="#F5F5F5"/>
<path d="M191.64 197.746C191.798 197.565 191.994 197.42 192.214 197.322C192.433 197.223 192.671 197.174 192.912 197.176C193.862 197.235 194.769 197.592 195.504 198.196C195.567 198.249 195.617 198.317 195.648 198.393C195.68 198.47 195.693 198.552 195.686 198.635C195.679 198.717 195.652 198.796 195.608 198.866C195.564 198.936 195.503 198.994 195.432 199.036C195.339 199.092 195.229 199.116 195.121 199.104C195.012 199.092 194.911 199.045 194.832 198.97C194.431 198.533 193.934 198.195 193.38 197.983C192.826 197.77 192.23 197.689 191.64 197.746Z" fill="#F5F5F5"/>
<path d="M223.914 125.698C224.28 136.78 224.304 160.78 224.304 160.78C224.418 162.16 224.538 164.608 224.64 169.576C224.79 176.776 225.138 194.554 225.138 194.554C225.138 194.554 221.7 196.168 218.538 194.854C218.538 194.854 214.146 169.858 213.246 162.73C212.46 156.508 210.954 141.916 210.954 141.916L208.878 160.438C208.878 160.438 208.878 165.238 208.596 169.474C208.362 172.774 205.158 189.772 205.158 189.772C203.065 190.328 200.855 190.255 198.804 189.562C198.804 189.562 198.516 163.468 198.456 160.438C198.39 156.994 199.278 119.758 199.278 119.758L223.914 125.698Z" fill="#455A64"/>
<path d="M210.966 141.916L210.174 135.634C207.616 134.98 205.198 133.87 203.034 132.358C203.034 132.358 204.558 134.398 209.034 136.558L210.042 142.258L208.902 160.438L210.966 141.916Z" fill="#37474F"/>
<path d="M198.996 94.6C197.376 96.724 189.042 108.16 189.042 108.16L181.344 102.196C179.544 100.786 179.01 98.938 177.882 97.66C176.754 96.382 175.518 96.076 174.252 95.008C172.986 93.94 172.5 93.13 172.068 94.042C171.636 94.954 173.034 96.544 173.268 96.928C173.502 97.312 174.948 98.23 173.04 98.128C171.132 98.026 167.46 95.848 166.572 95.446C165.684 95.044 165.66 96.142 166.08 96.862C166.5 97.582 166.29 99.586 166.782 100.876C167.274 102.166 168.138 102.958 169.896 103.828C171.534 104.644 175.518 105.154 176.814 105.97C179.658 108.886 185.022 114.328 186.378 115.336C188.244 116.722 190.05 118 192.906 115.252C195.762 112.504 204.036 101.722 204.036 101.722L205.746 91.468C202.938 91.366 200.952 92.038 198.996 94.6Z" fill="#B16668"/>
<path d="M189.042 108.16C190.098 108.94 191.196 110.692 191.298 111.478C191.286 110.733 191.119 109.999 190.81 109.322C190.5 108.644 190.053 108.039 189.498 107.542L189.042 108.16Z" fill="#9A4A4D"/>
<path d="M206.406 91.2161C206.406 91.2161 202.446 91.1681 200.706 92.3861C198.966 93.6041 197.676 95.3861 194.85 99.4961C192.372 103.096 191.172 104.824 191.172 104.824C192.794 107.224 195.156 109.027 197.898 109.96L205.29 100.804L206.406 91.2161Z" fill="#37474F"/>
<path d="M214.068 91.0241C216.312 91.2401 219.468 91.2641 221.688 91.4921C223.23 92.1281 226.206 94.7201 225.984 96.5681C225.156 103.474 223.482 114.796 223.482 114.796L224.034 126.796C220.944 129.88 206.484 131.086 199.032 126.154C199.032 126.154 199.272 104.602 199.788 100.954C200.706 94.4201 201.51 91.9961 204.882 91.4201C208.254 90.8441 214.068 91.0241 214.068 91.0241Z" fill="#06556A"/>
<path d="M226.776 94.774C228.396 96.898 236.736 108.334 236.736 108.334L244.44 102.37C246.24 100.954 246.774 99.106 247.902 97.834C249.03 96.562 250.266 96.25 251.532 95.182C252.798 94.114 253.284 93.304 253.716 94.21C254.148 95.116 252.75 96.718 252.516 97.102C252.282 97.486 250.836 98.404 252.744 98.302C254.652 98.2 258.318 96.016 259.212 95.614C260.106 95.212 260.118 96.31 259.704 97.03C259.29 97.75 259.488 99.76 259.002 101.05C258.516 102.34 257.646 103.126 255.888 104.002C254.25 104.818 250.266 105.328 248.97 106.144C246.126 109.054 240.762 114.502 239.406 115.504C237.54 116.89 235.734 118.168 232.878 115.426C230.022 112.684 223.494 104.146 223.494 104.146L220.038 91.642C222.84 91.54 224.826 92.212 226.776 94.774Z" fill="#B16668"/>
<path d="M236.736 108.334C235.68 109.114 234.582 110.866 234.48 111.652C234.492 110.906 234.657 110.171 234.967 109.493C235.277 108.814 235.724 108.207 236.28 107.71L236.736 108.334Z" fill="#9A4A4D"/>
<path d="M219.642 91.342C219.642 91.342 223.2 91.12 225.072 92.542C226.758 93.838 228.072 95.542 230.928 99.652C233.406 103.252 234.606 104.98 234.606 104.98C232.98 107.379 230.617 109.182 227.874 110.116L222.84 103.912C220.218 100.588 217.62 95.53 219.642 91.342Z" fill="#37474F"/>
<path d="M214.626 74.7761C214.638 76.1525 214.241 77.5016 213.486 78.6527C212.731 79.8038 211.652 80.7051 210.385 81.2428C209.118 81.7805 207.72 81.9304 206.367 81.6735C205.015 81.4166 203.769 80.7644 202.787 79.7995C201.806 78.8346 201.132 77.6002 200.852 76.2525C200.572 74.9048 200.698 73.5042 201.213 72.228C201.729 70.9517 202.612 69.8571 203.75 69.0824C204.888 68.3078 206.23 67.888 207.606 67.8761C208.52 67.8681 209.427 68.0403 210.274 68.3828C211.122 68.7253 211.893 69.2314 212.545 69.8721C213.197 70.5128 213.716 71.2757 214.073 72.1171C214.43 72.9585 214.618 73.862 214.626 74.7761Z" fill="#263238"/>
<path d="M219.744 79.6841C219.744 79.6841 218.658 84.9941 218.214 85.8641C217.919 86.4044 217.427 86.8104 216.84 86.9981L216.882 83.2661L219.744 79.6841Z" fill="#263238"/>
<path d="M218.262 72.106C218.655 72.0555 219.055 72.0958 219.431 72.2237C219.806 72.3516 220.147 72.5638 220.428 72.844C221.364 73.786 220.872 76.762 219.744 79.684L217.62 79.948L218.262 72.106Z" fill="#263238"/>
<path d="M216.984 79.954C217.41 80.206 218.01 79.354 218.532 78.826C219.054 78.298 220.758 77.506 221.634 79.3C222.51 81.094 220.914 83.572 219.57 84.004C217.248 84.76 216.882 83.266 216.882 83.266L216.786 91.918C213.93 95.656 205.896 95.41 209.208 91.51V88.954C208.174 89.1275 207.124 89.1898 206.076 89.14C204.36 88.894 203.274 87.55 202.734 85.702C201.876 82.738 201.534 80.338 202.194 74.476C202.914 68.056 210.372 67.924 214.422 70.426C218.472 72.928 216.984 79.954 216.984 79.954Z" fill="#B16668"/>
<path d="M216.99 80.6681C217.2 80.6681 218.004 79.3121 218.532 78.8261C219.258 78.1481 218.262 72.1061 218.262 72.1061C218.511 71.5699 218.593 70.9711 218.497 70.3877C218.4 69.8044 218.13 69.2636 217.722 68.8361C216.708 67.7381 215.292 66.4001 210.732 66.9761C207.474 67.3901 203.94 68.4401 201.066 67.0601C200.81 67.9957 200.839 68.9863 201.149 69.9055C201.459 70.8246 202.036 71.6304 202.806 72.2201C202.806 72.2201 203.85 72.8801 206.58 73.1861C209.097 73.3517 211.624 73.2813 214.128 72.9761C214.92 72.8621 215.094 73.6241 215.538 75.7181C215.928 77.5481 216.27 80.6621 216.99 80.6681Z" fill="#263238"/>
<path d="M218.262 72.574L220.824 71.17C220.741 70.9967 220.623 70.8421 220.478 70.7156C220.334 70.5892 220.164 70.4936 219.981 70.4346C219.798 70.3757 219.605 70.3546 219.414 70.3728C219.222 70.3909 219.037 70.4478 218.868 70.54C218.525 70.7359 218.27 71.0567 218.157 71.4355C218.044 71.8144 218.082 72.2222 218.262 72.574Z" fill="#263238"/>
<path d="M209.19 88.9541C209.19 88.9541 213.006 88.1501 214.332 87.4301C215.114 87.0145 215.752 86.3725 216.162 85.5881C215.968 86.3696 215.62 87.1042 215.136 87.7481C214.17 89.0081 209.202 89.9681 209.202 89.9681L209.19 88.9541Z" fill="#9A4A4D"/>
<path d="M208.884 79.342C208.882 79.4442 208.901 79.5456 208.939 79.6405C208.977 79.7354 209.033 79.8219 209.104 79.895C209.176 79.9681 209.261 80.0263 209.355 80.0663C209.449 80.1063 209.55 80.1273 209.652 80.128C209.811 80.134 209.969 80.092 210.104 80.0075C210.24 79.923 210.347 79.7999 210.411 79.654C210.476 79.5081 210.496 79.3461 210.467 79.1891C210.439 79.032 210.364 78.887 210.253 78.7729C210.141 78.6587 209.998 78.5807 209.842 78.5487C209.685 78.5168 209.523 78.5325 209.376 78.5938C209.228 78.655 209.103 78.7591 209.015 78.8925C208.927 79.0259 208.882 79.1825 208.884 79.342Z" fill="#263238"/>
<path d="M211.158 76.7081L209.454 75.9341C209.355 76.1671 209.35 76.4294 209.439 76.6663C209.529 76.9032 209.706 77.0966 209.934 77.2061C210.047 77.256 210.169 77.2828 210.292 77.2846C210.415 77.2865 210.538 77.2635 210.652 77.2171C210.766 77.1706 210.87 77.1016 210.957 77.0141C211.044 76.9267 211.112 76.8226 211.158 76.7081Z" fill="#263238"/>
<path d="M203.868 75.7661L202.386 76.9301C202.456 77.031 202.546 77.1164 202.651 77.181C202.755 77.2455 202.872 77.2879 202.993 77.3053C203.115 77.3228 203.239 77.315 203.357 77.2824C203.476 77.2498 203.586 77.1932 203.682 77.1161C203.879 76.9568 204.007 76.7286 204.042 76.4778C204.077 76.2271 204.014 75.9726 203.868 75.7661Z" fill="#263238"/>
<path d="M202.974 79.1561C202.981 79.2994 203.03 79.4374 203.115 79.5531C203.2 79.6687 203.317 79.7569 203.451 79.8067C203.586 79.8564 203.732 79.8655 203.872 79.8328C204.012 79.8002 204.139 79.7272 204.237 79.6229C204.336 79.5187 204.401 79.3877 204.426 79.2464C204.451 79.1051 204.434 78.9597 204.376 78.8281C204.319 78.6966 204.225 78.5847 204.104 78.5065C203.984 78.4283 203.843 78.3871 203.7 78.3881C203.602 78.3904 203.505 78.4122 203.415 78.4521C203.325 78.492 203.244 78.5494 203.177 78.6208C203.109 78.6922 203.057 78.7762 203.022 78.8681C202.987 78.96 202.971 79.0579 202.974 79.1561Z" fill="#263238"/>
<path d="M206.946 78.5381L206.514 83.1281L204.144 82.2161L206.946 78.5381Z" fill="#9A4A4D"/>
<path d="M208.248 84.85C208.247 84.9962 208.289 85.1395 208.37 85.2617C208.45 85.3838 208.565 85.4793 208.699 85.5361C208.834 85.5929 208.983 85.6084 209.126 85.5806C209.27 85.5528 209.402 85.483 209.506 85.38C209.61 85.277 209.68 85.1456 209.709 85.0022C209.738 84.8589 209.724 84.7102 209.668 84.575C209.613 84.4398 209.518 84.3242 209.397 84.2428C209.275 84.1615 209.132 84.118 208.986 84.118C208.791 84.118 208.605 84.195 208.466 84.3321C208.328 84.4692 208.25 84.6553 208.248 84.85Z" fill="#9A4A4D"/>
<path d="M226.98 35.9681C228.124 36.2229 229.227 36.6369 230.256 37.1981C231.24 37.7278 232.122 38.4288 232.86 39.2681C233.57 40.0812 234.094 41.0395 234.396 42.0761C234.712 43.1749 234.737 44.3368 234.468 45.4481C234.29 46.3302 233.94 47.1683 233.436 47.9141C232.984 48.5557 232.44 49.1277 231.822 49.6121C231.217 50.0813 230.573 50.4969 229.896 50.8541L227.988 51.8621C227.412 52.1626 226.866 52.5162 226.356 52.9181C225.895 53.2677 225.542 53.7395 225.336 54.2801C225.233 54.5211 225.064 54.7287 224.85 54.8801C224.747 54.9586 224.628 55.013 224.501 55.0389C224.374 55.0649 224.244 55.0619 224.118 55.0301L221.31 54.4301C221.175 54.4016 221.048 54.3467 220.934 54.2684C220.821 54.1901 220.724 54.0901 220.65 53.9741C220.572 53.8654 220.52 53.7398 220.499 53.6074C220.478 53.475 220.489 53.3396 220.53 53.2121C220.764 52.3392 221.172 51.5228 221.73 50.8121C222.233 50.1848 222.813 49.6243 223.458 49.1441C224.081 48.6885 224.741 48.287 225.432 47.9441C226.116 47.6021 226.752 47.2721 227.34 46.9481C227.878 46.664 228.383 46.322 228.846 45.9281C229.25 45.5879 229.531 45.1239 229.644 44.6081C229.748 44.1576 229.741 43.6887 229.624 43.2414C229.507 42.7942 229.283 42.382 228.972 42.0401C228.196 41.1922 227.159 40.6283 226.026 40.4381C223.93 39.9701 222.158 40.6761 220.71 42.5561C220.571 42.7619 220.394 42.9391 220.188 43.0781C220.077 43.1348 219.955 43.1688 219.83 43.178C219.706 43.1873 219.581 43.1717 219.462 43.1321L216.462 42.4661C216.356 42.4457 216.256 42.4044 216.166 42.3447C216.076 42.2849 216 42.2079 215.94 42.1181C215.875 42.0262 215.831 41.9209 215.811 41.8099C215.791 41.6989 215.796 41.5848 215.826 41.4761C216.078 40.5539 216.552 39.7074 217.206 39.0101C217.94 38.1997 218.812 37.5254 219.78 37.0181C220.841 36.4608 221.986 36.0798 223.17 35.8901C224.433 35.6679 225.727 35.6943 226.98 35.9681ZM223.812 57.2921C223.944 57.3202 224.068 57.3752 224.178 57.4537C224.287 57.5321 224.379 57.6324 224.448 57.7481C224.522 57.8601 224.572 57.9859 224.596 58.1179C224.62 58.2499 224.616 58.3854 224.586 58.5161L223.866 61.7681C223.806 62.0277 223.647 62.2536 223.423 62.3981C223.199 62.5425 222.927 62.5942 222.666 62.5421L219.486 61.8401C219.355 61.812 219.231 61.7576 219.122 61.6803C219.013 61.6029 218.92 61.5042 218.85 61.3901C218.775 61.2785 218.724 61.1527 218.701 61.0205C218.677 60.8883 218.681 60.7527 218.712 60.6221L219.432 57.3641C219.492 57.1045 219.651 56.8785 219.875 56.734C220.099 56.5896 220.371 56.5379 220.632 56.5901L223.812 57.2921Z" fill="#06556A"/>
<path d="M236.412 66.562C237.206 66.4312 238.014 66.4151 238.812 66.514C239.579 66.6012 240.325 66.8247 241.014 67.1741C241.672 67.5106 242.249 67.9855 242.706 68.566C243.19 69.1883 243.503 69.927 243.612 70.7081C243.736 71.3157 243.736 71.9424 243.612 72.55C243.487 73.0788 243.285 73.5863 243.012 74.0561C242.745 74.5089 242.44 74.9385 242.1 75.3401L241.134 76.48C240.843 76.8211 240.582 77.1864 240.354 77.5721C240.151 77.9149 240.047 78.3075 240.054 78.7061C240.053 78.8933 239.999 79.0763 239.898 79.234C239.852 79.3095 239.79 79.3739 239.717 79.4227C239.643 79.4714 239.559 79.5033 239.472 79.516L237.51 79.8401C237.32 79.8698 237.127 79.8246 236.97 79.714C236.893 79.6638 236.829 79.5965 236.782 79.5175C236.735 79.4384 236.707 79.3497 236.7 79.2581C236.618 78.6431 236.665 78.0178 236.838 77.4221C236.994 76.8875 237.222 76.3767 237.516 75.9041C237.797 75.4516 238.116 75.024 238.47 74.6261C238.824 74.2301 239.142 73.858 239.442 73.498C239.712 73.1781 239.948 72.8301 240.144 72.4601C240.316 72.1387 240.377 71.7697 240.318 71.4101C240.269 71.094 240.144 70.7945 239.954 70.5374C239.764 70.2802 239.514 70.0732 239.226 69.934C238.515 69.5867 237.707 69.4895 236.934 69.6581C236.234 69.7612 235.584 70.0775 235.071 70.5639C234.557 71.0503 234.207 71.6831 234.066 72.3761C234.028 72.5453 233.959 72.706 233.862 72.85C233.746 72.9777 233.584 73.0551 233.412 73.066L231.324 73.4081C231.176 73.4324 231.024 73.4003 230.898 73.3181C230.832 73.2755 230.777 73.2191 230.735 73.1527C230.694 73.0864 230.667 73.0117 230.658 72.934C230.585 72.2786 230.674 71.6154 230.916 71.0021C231.176 70.2928 231.563 69.6363 232.056 69.064C232.594 68.436 233.23 67.8991 233.94 67.4741C234.697 67.0124 235.537 66.7027 236.412 66.562ZM239.838 81.076C239.93 81.0606 240.024 81.0638 240.115 81.0855C240.206 81.1071 240.291 81.1468 240.366 81.2021C240.441 81.2554 240.505 81.3232 240.553 81.4015C240.602 81.4799 240.634 81.5671 240.648 81.6581L241.02 83.926C241.035 84.018 241.032 84.1121 241.011 84.2028C240.989 84.2935 240.949 84.379 240.894 84.4541C240.841 84.5298 240.774 84.594 240.695 84.6425C240.617 84.691 240.529 84.7229 240.438 84.7361L238.218 85.1021C238.127 85.117 238.034 85.1136 237.944 85.0919C237.855 85.0703 237.77 85.0309 237.696 84.976C237.619 84.9241 237.554 84.8567 237.504 84.7782C237.455 84.6997 237.422 84.6118 237.408 84.5201L237.036 82.246C237.009 82.0591 237.056 81.8689 237.169 81.7171C237.281 81.5653 237.449 81.4642 237.636 81.4361L239.838 81.076Z" fill="#06556A"/>
<g opacity="0.2">
<path d="M236.412 66.562C237.206 66.4312 238.014 66.4151 238.812 66.514C239.579 66.6012 240.325 66.8247 241.014 67.1741C241.672 67.5106 242.249 67.9855 242.706 68.566C243.19 69.1883 243.503 69.927 243.612 70.7081C243.736 71.3157 243.736 71.9424 243.612 72.55C243.487 73.0788 243.285 73.5863 243.012 74.0561C242.745 74.5089 242.44 74.9385 242.1 75.3401L241.134 76.48C240.843 76.8211 240.582 77.1864 240.354 77.5721C240.151 77.9149 240.047 78.3075 240.054 78.7061C240.053 78.8933 239.999 79.0763 239.898 79.234C239.852 79.3095 239.79 79.3739 239.717 79.4227C239.643 79.4714 239.559 79.5033 239.472 79.516L237.51 79.8401C237.32 79.8698 237.127 79.8246 236.97 79.714C236.893 79.6638 236.829 79.5965 236.782 79.5175C236.735 79.4384 236.707 79.3497 236.7 79.2581C236.618 78.6431 236.665 78.0178 236.838 77.4221C236.994 76.8875 237.222 76.3767 237.516 75.9041C237.797 75.4516 238.116 75.024 238.47 74.6261C238.824 74.2301 239.142 73.858 239.442 73.498C239.712 73.1781 239.948 72.8301 240.144 72.4601C240.316 72.1387 240.377 71.7697 240.318 71.4101C240.269 71.094 240.144 70.7945 239.954 70.5374C239.764 70.2802 239.514 70.0732 239.226 69.934C238.515 69.5867 237.707 69.4895 236.934 69.6581C236.234 69.7612 235.584 70.0775 235.071 70.5639C234.557 71.0503 234.207 71.6831 234.066 72.3761C234.028 72.5453 233.959 72.706 233.862 72.85C233.746 72.9777 233.584 73.0551 233.412 73.066L231.324 73.4081C231.176 73.4324 231.024 73.4003 230.898 73.3181C230.832 73.2755 230.777 73.2191 230.735 73.1527C230.694 73.0864 230.667 73.0117 230.658 72.934C230.585 72.2786 230.674 71.6154 230.916 71.0021C231.176 70.2928 231.563 69.6363 232.056 69.064C232.594 68.436 233.23 67.8991 233.94 67.4741C234.697 67.0124 235.537 66.7027 236.412 66.562ZM239.838 81.076C239.93 81.0606 240.024 81.0638 240.115 81.0855C240.206 81.1071 240.291 81.1468 240.366 81.2021C240.441 81.2554 240.505 81.3232 240.553 81.4015C240.602 81.4799 240.634 81.5671 240.648 81.6581L241.02 83.926C241.035 84.018 241.032 84.1121 241.011 84.2028C240.989 84.2935 240.949 84.379 240.894 84.4541C240.841 84.5298 240.774 84.594 240.695 84.6425C240.617 84.691 240.529 84.7229 240.438 84.7361L238.218 85.1021C238.127 85.117 238.034 85.1136 237.944 85.0919C237.855 85.0703 237.77 85.0309 237.696 84.976C237.619 84.9241 237.554 84.8567 237.504 84.7782C237.455 84.6997 237.422 84.6118 237.408 84.5201L237.036 82.246C237.009 82.0591 237.056 81.8689 237.169 81.7171C237.281 81.5653 237.449 81.4642 237.636 81.4361L239.838 81.076Z" fill="black"/>
</g>
<path d="M256.872 73.0001C257.05 73.13 257.171 73.3244 257.208 73.5418C257.245 73.7593 257.195 73.9825 257.07 74.1641L255.486 76.3841C255.356 76.5623 255.162 76.6827 254.944 76.7197C254.727 76.7567 254.504 76.7073 254.322 76.5821L252.15 75.0401C252.061 74.9774 251.985 74.8972 251.927 74.8044C251.869 74.7116 251.831 74.6081 251.814 74.5001C251.783 74.2898 251.832 74.0754 251.952 73.9001L253.536 71.6741C253.665 71.4951 253.859 71.3744 254.076 71.3381C254.287 71.3063 254.502 71.358 254.676 71.4821L256.872 73.0001ZM266.04 57.9461C266.823 58.4986 267.523 59.1615 268.116 59.9141C268.689 60.6302 269.13 61.443 269.418 62.3141C269.693 63.1466 269.785 64.0287 269.688 64.9001C269.576 65.828 269.224 66.7107 268.668 67.4621C268.254 68.0696 267.724 68.5895 267.108 68.9921C266.561 69.3318 265.967 69.5886 265.344 69.7541C264.741 69.9151 264.124 70.0235 263.502 70.0781L261.738 70.2281C261.211 70.2764 260.69 70.3687 260.178 70.5041C259.721 70.625 259.305 70.87 258.978 71.2121C258.821 71.3652 258.627 71.4748 258.414 71.5301C258.311 71.5545 258.204 71.5559 258.1 71.5341C257.996 71.5123 257.899 71.4679 257.814 71.4041L255.894 70.0421C255.711 69.9102 255.586 69.7123 255.546 69.4901C255.523 69.3853 255.525 69.2766 255.551 69.1725C255.577 69.0684 255.627 68.9718 255.696 68.8901C256.143 68.3046 256.704 67.8166 257.346 67.4561C257.924 67.1393 258.541 66.9012 259.182 66.7481C259.797 66.5995 260.423 66.5031 261.054 66.4601C261.654 66.4241 262.254 66.3761 262.806 66.3221C263.302 66.2793 263.791 66.1807 264.264 66.0281C264.677 65.9024 265.036 65.6427 265.284 65.2901C265.507 64.9845 265.652 64.6291 265.707 64.2548C265.761 63.8804 265.723 63.4984 265.596 63.1421C265.283 62.2578 264.683 61.5038 263.892 61.0001C262.464 59.9801 260.904 59.9461 259.212 60.8981C259.041 61.0071 258.852 61.0843 258.654 61.1261C258.551 61.1334 258.448 61.1202 258.35 61.0872C258.252 61.0543 258.162 61.0022 258.084 60.9341L256.044 59.4821C255.896 59.3811 255.792 59.2261 255.756 59.0501C255.739 58.9601 255.741 58.8674 255.763 58.7783C255.784 58.6892 255.825 58.6059 255.882 58.5341C256.357 57.9204 256.975 57.4322 257.682 57.1121C258.494 56.7367 259.365 56.5072 260.256 56.4341C261.232 56.3545 262.214 56.4315 263.166 56.6621C264.2 56.8953 265.177 57.3318 266.04 57.9461Z" fill="#06556A"/>
<g opacity="0.6">
<path d="M256.872 73.0001C257.05 73.13 257.171 73.3244 257.208 73.5418C257.245 73.7593 257.195 73.9825 257.07 74.1641L255.486 76.3841C255.356 76.5623 255.162 76.6827 254.944 76.7197C254.727 76.7567 254.504 76.7073 254.322 76.5821L252.15 75.0401C252.061 74.9774 251.985 74.8972 251.927 74.8044C251.869 74.7116 251.831 74.6081 251.814 74.5001C251.783 74.2898 251.832 74.0754 251.952 73.9001L253.536 71.6741C253.665 71.4951 253.859 71.3744 254.076 71.3381C254.287 71.3063 254.502 71.358 254.676 71.4821L256.872 73.0001ZM266.04 57.9461C266.823 58.4986 267.523 59.1615 268.116 59.9141C268.689 60.6302 269.13 61.443 269.418 62.3141C269.693 63.1466 269.785 64.0287 269.688 64.9001C269.576 65.828 269.224 66.7107 268.668 67.4621C268.254 68.0696 267.724 68.5895 267.108 68.9921C266.561 69.3318 265.967 69.5886 265.344 69.7541C264.741 69.9151 264.124 70.0235 263.502 70.0781L261.738 70.2281C261.211 70.2764 260.69 70.3687 260.178 70.5041C259.721 70.625 259.305 70.87 258.978 71.2121C258.821 71.3652 258.627 71.4748 258.414 71.5301C258.311 71.5545 258.204 71.5559 258.1 71.5341C257.996 71.5123 257.899 71.4679 257.814 71.4041L255.894 70.0421C255.711 69.9102 255.586 69.7123 255.546 69.4901C255.523 69.3853 255.525 69.2766 255.551 69.1725C255.577 69.0684 255.627 68.9718 255.696 68.8901C256.143 68.3046 256.704 67.8166 257.346 67.4561C257.924 67.1393 258.541 66.9012 259.182 66.7481C259.797 66.5995 260.423 66.5031 261.054 66.4601C261.654 66.4241 262.254 66.3761 262.806 66.3221C263.302 66.2793 263.791 66.1807 264.264 66.0281C264.677 65.9024 265.036 65.6427 265.284 65.2901C265.507 64.9845 265.652 64.6291 265.707 64.2548C265.761 63.8804 265.723 63.4984 265.596 63.1421C265.283 62.2578 264.683 61.5038 263.892 61.0001C262.464 59.9801 260.904 59.9461 259.212 60.8981C259.041 61.0071 258.852 61.0843 258.654 61.1261C258.551 61.1334 258.448 61.1202 258.35 61.0872C258.252 61.0543 258.162 61.0022 258.084 60.9341L256.044 59.4821C255.896 59.3811 255.792 59.2261 255.756 59.0501C255.739 58.9601 255.741 58.8674 255.763 58.7783C255.784 58.6892 255.825 58.6059 255.882 58.5341C256.357 57.9204 256.975 57.4322 257.682 57.1121C258.494 56.7367 259.365 56.5072 260.256 56.4341C261.232 56.3545 262.214 56.4315 263.166 56.6621C264.2 56.8953 265.177 57.3318 266.04 57.9461Z" fill="white"/>
</g>
<path d="M63.528 191.788C63.468 189.988 64.764 172.396 64.764 172.396L56.196 178.612C57.954 189.1 58.332 191.578 58.362 193.294C58.3258 193.437 58.3096 193.585 58.314 193.732C58.314 195.772 60.624 196.87 62.418 198.232C63.9429 199.424 65.5668 200.484 67.272 201.4C68.574 202.054 71.226 202.114 71.55 201.274C69.366 199.606 66.192 197.11 64.452 195.208C63.624 194.296 63.594 193.576 63.528 191.788Z" fill="#FFA8A7"/>
<path d="M75.2759 203.476C75.3731 203.756 75.3903 204.058 75.3256 204.347C75.261 204.636 75.117 204.902 74.9099 205.114C73.3364 206.249 71.3778 206.715 69.4619 206.41C66.7379 206.056 65.2619 205.282 64.1759 204.37C63.0899 203.458 61.5599 202.174 60.3239 201.904C59.3413 201.717 58.4066 201.333 57.5759 200.776C57.2099 200.422 57.2579 198.85 57.2579 198.85L75.2759 203.476Z" fill="#263238"/>
<path d="M58.344 192.796C58.2431 192.799 58.1465 192.837 58.0709 192.904C57.9952 192.971 57.9454 193.062 57.93 193.162C57.846 193.594 57.756 194.854 57.576 195.562C57.2976 196.814 57.2086 198.1 57.312 199.378C57.462 200.188 59.322 200.746 60.516 201.178C61.9202 201.789 63.2231 202.611 64.38 203.614C66.0497 204.863 68.0425 205.606 70.122 205.756C72.222 205.756 74.5861 205.06 75.1321 204.088C75.7981 202.888 75.276 202.186 72.162 200.74C71.562 200.47 69.504 199.24 68.796 198.796C66.888 197.596 64.998 195.922 64.116 193.798C64.0449 193.538 63.8886 193.31 63.672 193.15C63.4831 193.069 63.2734 193.048 63.072 193.09C62.552 193.166 62.0463 193.32 61.572 193.546C61.158 193.744 60.564 193.978 60.57 194.512C60.5828 194.697 60.6233 194.879 60.69 195.052C60.726 195.166 60.756 195.31 60.69 195.376C60.624 195.442 60.48 195.376 60.396 195.292C60.0907 194.98 59.8118 194.643 59.562 194.284C59.4145 194.101 59.2476 193.934 59.064 193.786C58.8805 193.682 58.7041 193.566 58.536 193.438C58.308 193.276 58.356 193.048 58.344 192.796Z" fill="#49555B"/>
<path d="M64.38 203.644C63.834 203.2 63.258 202.762 62.682 202.378C62.682 202.378 66.342 204.604 67.818 203.578C68.0919 203.404 68.2923 203.136 68.3808 202.824C68.4694 202.512 68.4399 202.178 68.298 201.886C68.298 201.634 70.626 200.548 71.55 200.44C71.808 200.584 72.024 200.698 72.15 200.758C75.264 202.204 75.786 202.9 75.12 204.106C74.574 205.078 72.864 205.84 70.152 205.84C68.388 205.876 65.64 204.676 64.38 203.644Z" fill="#37474F"/>
<path d="M68.04 201.16C69.978 201.934 69.15 202.294 68.61 202.36C68.07 202.426 64.812 200.56 62.82 198.964C60.828 197.368 59.442 195.526 58.674 194.926C58.386 194.704 58.074 194.428 57.798 194.17C57.852 193.744 57.894 193.354 57.93 193.15C57.9454 193.05 57.9952 192.959 58.0708 192.892C58.1464 192.825 58.2431 192.787 58.344 192.784C58.344 193.036 58.308 193.27 58.5 193.456C58.668 193.584 58.8444 193.7 59.028 193.804C59.2115 193.952 59.3785 194.119 59.526 194.302C59.7757 194.66 60.0546 194.998 60.36 195.31C62.519 197.737 65.1269 199.723 68.04 201.16Z" fill="#263238"/>
<path d="M68.4721 202.09C68.4277 202.088 68.3853 202.071 68.3521 202.042C68.3325 202.027 68.3163 202.008 68.3042 201.986C68.2921 201.965 68.2844 201.941 68.2816 201.916C68.2788 201.892 68.2809 201.867 68.2879 201.843C68.2948 201.819 68.3064 201.797 68.3221 201.778C68.7784 201.304 69.3311 200.934 69.9428 200.691C70.5545 200.449 71.211 200.341 71.8681 200.374C71.9196 200.38 71.9667 200.406 71.9992 200.447C72.0317 200.487 72.0471 200.538 72.042 200.59C72.036 200.64 72.0106 200.686 71.9714 200.717C71.9321 200.748 71.8821 200.763 71.8321 200.758C71.2388 200.734 70.647 200.833 70.0943 201.05C69.5416 201.267 69.0402 201.597 68.6221 202.018C68.6038 202.04 68.5809 202.058 68.555 202.071C68.5291 202.083 68.5008 202.09 68.4721 202.09Z" fill="#F5F5F5"/>
<path d="M66.786 201.076C66.7402 201.078 66.6954 201.063 66.66 201.034C66.6258 200.997 66.6068 200.949 66.6068 200.899C66.6068 200.849 66.6258 200.801 66.66 200.764C67.1173 200.292 67.6703 199.923 68.2819 199.682C68.8934 199.441 69.5494 199.333 70.206 199.366C70.2569 199.372 70.3035 199.397 70.3356 199.437C70.3676 199.477 70.3825 199.528 70.377 199.579C70.3714 199.63 70.3458 199.677 70.3059 199.709C70.2659 199.741 70.2149 199.756 70.164 199.75C69.5706 199.724 68.9783 199.823 68.4254 200.04C67.8724 200.257 67.3712 200.587 66.954 201.01C66.9335 201.034 66.9075 201.053 66.8782 201.064C66.8489 201.076 66.8172 201.08 66.786 201.076Z" fill="#F5F5F5"/>
<path d="M65.094 200.062C65.0504 200.063 65.0079 200.048 64.9741 200.02C64.9385 199.984 64.9186 199.936 64.9186 199.885C64.9186 199.835 64.9385 199.786 64.9741 199.75C65.4316 199.278 65.9847 198.909 66.5962 198.668C67.2077 198.427 67.8636 198.319 68.5201 198.352C68.5453 198.354 68.5699 198.362 68.5923 198.373C68.6148 198.385 68.6346 198.401 68.6508 198.421C68.667 198.44 68.6791 198.463 68.6866 198.487C68.694 198.511 68.6965 198.537 68.694 198.562C68.6918 198.587 68.6846 198.612 68.6728 198.634C68.661 198.657 68.6448 198.677 68.6253 198.693C68.6058 198.709 68.5833 198.721 68.559 198.729C68.5348 198.736 68.5093 198.739 68.4841 198.736C67.8906 198.71 67.2984 198.809 66.7454 199.026C66.1925 199.243 65.6913 199.573 65.2741 199.996C65.2518 200.021 65.2237 200.04 65.1923 200.052C65.1609 200.063 65.1272 200.067 65.094 200.062Z" fill="#F5F5F5"/>
<path d="M63.528 198.94C63.4843 198.941 63.4419 198.926 63.408 198.898C63.3897 198.881 63.3751 198.86 63.3651 198.837C63.3551 198.813 63.35 198.788 63.35 198.763C63.35 198.738 63.3551 198.713 63.3651 198.69C63.3751 198.666 63.3897 198.645 63.408 198.628C63.8649 198.155 64.4178 197.786 65.0295 197.545C65.6412 197.304 66.2974 197.196 66.954 197.23C67.004 197.236 67.0495 197.261 67.0809 197.301C67.1124 197.34 67.1271 197.39 67.122 197.44C67.116 197.49 67.0906 197.536 67.0514 197.567C67.0121 197.598 66.9621 197.613 66.912 197.608C66.3189 197.585 65.7274 197.684 65.1749 197.901C64.6223 198.118 64.1208 198.447 63.702 198.868C63.6817 198.894 63.6549 198.914 63.6245 198.927C63.594 198.94 63.5608 198.944 63.528 198.94Z" fill="#F5F5F5"/>
<path d="M61.998 197.818C61.9547 197.816 61.913 197.801 61.878 197.776C61.8424 197.74 61.8225 197.692 61.8225 197.641C61.8225 197.591 61.8424 197.542 61.878 197.506C62.3728 196.991 62.9785 196.596 63.6492 196.35C64.3199 196.105 65.0377 196.016 65.748 196.09C65.7733 196.091 65.7981 196.098 65.8207 196.11C65.8433 196.121 65.8632 196.138 65.8791 196.157C65.895 196.177 65.9065 196.2 65.9128 196.225C65.9192 196.249 65.9203 196.275 65.916 196.3C65.91 196.35 65.8846 196.396 65.8453 196.427C65.806 196.458 65.756 196.473 65.706 196.468C65.0603 196.404 64.4086 196.485 63.7983 196.706C63.188 196.926 62.6344 197.279 62.178 197.74C62.157 197.767 62.1294 197.788 62.098 197.802C62.0665 197.816 62.0321 197.821 61.998 197.818Z" fill="#F5F5F5"/>
<path d="M47.3879 180.406L38.7419 180.25C38.8679 186.022 39.7859 192.424 39.9419 197.836C39.9419 198.856 39.9419 205.756 40.3019 207.856C40.9019 211.006 44.6219 210.58 44.8199 208.696C45.0179 206.812 44.5799 198.754 44.5919 197.896C44.5559 194.428 46.1819 188.566 47.0399 182.332C47.0759 182.05 47.3459 180.706 47.3879 180.406Z" fill="#FFA8A7"/>
<path d="M46.224 210.004C46.3846 211.448 46.1782 212.909 45.624 214.252C45.3496 214.785 44.9069 215.213 44.3644 215.469C43.822 215.725 43.2102 215.795 42.624 215.668C41.346 215.482 39.66 214.798 39.144 213.268C38.6554 211.859 38.4834 210.359 38.64 208.876L46.224 210.004Z" fill="#263238"/>
<path d="M39.918 197.176C39.408 197.266 39.504 199.756 39.456 202.258C39.402 204.946 38.724 206.122 38.658 208.324C38.58 210.844 38.826 211.924 39.858 213.352C40.89 214.78 44.112 215.932 45.414 213.628C46.476 211.75 46.332 209.8 45.966 207.328C45.6 204.856 45.312 202.984 45.216 201.028C45.12 199.072 45.078 197.338 44.616 197.176C44.616 197.452 44.616 197.806 44.616 198.076C44.616 198.346 44.658 199.276 44.37 199.336C44.3256 199.105 44.2995 198.87 44.292 198.634C44.3054 198.416 44.2345 198.201 44.094 198.034C43.9205 197.906 43.7097 197.839 43.494 197.842C42.9801 197.784 42.4632 197.756 41.946 197.758C41.688 197.758 41.424 197.758 41.172 197.8C40.9503 197.817 40.7332 197.872 40.53 197.962C40.4702 197.988 40.4164 198.025 40.3719 198.073C40.3275 198.12 40.2935 198.177 40.272 198.238C40.254 198.333 40.254 198.431 40.272 198.526C40.2931 198.697 40.2931 198.871 40.272 199.042C40.272 199.12 40.218 199.216 40.14 199.204C40.062 199.192 40.05 199.12 40.044 199.06C40.008 198.76 40.044 198.538 40.008 198.19C40.008 198.028 40.008 197.806 40.008 197.644C40.008 197.482 39.924 197.338 39.918 197.176Z" fill="#49555B"/>
<path d="M38.7 207.604C38.7 207.97 38.622 210.376 39.3 210.736C39.978 211.096 40.242 209.224 40.242 209.224C40.242 209.224 41.832 208.558 44.328 209.362C44.244 209.758 44.736 210.994 45.366 210.658C45.996 210.322 45.966 207.58 45.966 207.544C46.308 209.944 46.416 211.804 45.366 213.628C44.064 215.932 40.83 214.768 39.81 213.352C38.79 211.936 38.544 210.844 38.61 208.324C38.64 208.072 38.682 207.838 38.7 207.604Z" fill="#37474F"/>
<path d="M40.44 209.362C40.518 210.262 39.606 210.052 39.438 208.762C39.27 207.472 39.666 204.418 39.438 202.234C39.486 199.732 39.39 197.242 39.9 197.152C39.897 197.182 39.897 197.212 39.9 197.242L39.96 198.508C39.9482 198.688 39.9482 198.868 39.96 199.048C40.128 200.884 40.23 204.448 40.236 206.14C40.2466 207.217 40.3147 208.292 40.44 209.362Z" fill="#263238"/>
<path d="M44.04 209.362C44.1576 208.3 44.2157 207.233 44.214 206.164C44.214 204.484 44.322 200.962 44.49 199.114C44.5551 198.772 44.5812 198.424 44.568 198.076C44.568 197.824 44.568 197.476 44.568 197.236C44.568 197.236 44.568 197.2 44.568 197.176C44.904 197.302 45.024 198.292 45.096 199.54C45.096 200.266 45.096 201.166 45.03 202.258C44.802 204.442 45.198 207.538 45.03 208.804C44.862 210.07 43.98 210.262 44.04 209.362Z" fill="#263238"/>
<path d="M44.394 209.428H44.328C43.0315 208.98 41.6224 208.98 40.326 209.428C40.3023 209.437 40.2772 209.441 40.2518 209.441C40.2265 209.44 40.2016 209.434 40.1785 209.424C40.1554 209.414 40.1345 209.399 40.1171 209.381C40.0997 209.362 40.086 209.341 40.077 209.317C40.0679 209.293 40.0636 209.268 40.0643 209.243C40.065 209.218 40.0706 209.193 40.0809 209.17C40.0912 209.146 40.106 209.126 40.1243 209.108C40.1427 209.091 40.1643 209.077 40.188 209.068C41.5712 208.574 43.0828 208.574 44.466 209.068C44.4896 209.077 44.5112 209.09 44.5295 209.107C44.5478 209.124 44.5624 209.145 44.5725 209.168C44.5826 209.191 44.5879 209.216 44.5882 209.241C44.5884 209.266 44.5836 209.291 44.574 209.314C44.5593 209.349 44.5341 209.379 44.5019 209.399C44.4697 209.42 44.432 209.43 44.394 209.428Z" fill="#F5F5F5"/>
<path d="M44.64 207.436C44.6183 207.441 44.5956 207.441 44.574 207.436C43.1163 206.984 41.5556 206.984 40.098 207.436C40.0739 207.445 40.0485 207.448 40.023 207.447C39.9976 207.445 39.9727 207.439 39.9498 207.428C39.9269 207.416 39.9065 207.401 39.8897 207.382C39.8729 207.363 39.8601 207.34 39.852 207.316C39.8436 207.292 39.84 207.267 39.8415 207.242C39.8431 207.217 39.8496 207.193 39.8608 207.17C39.872 207.148 39.8876 207.128 39.9067 207.112C39.9258 207.096 39.948 207.084 39.972 207.076C41.5119 206.586 43.1661 206.586 44.706 207.076C44.7481 207.092 44.7834 207.122 44.8058 207.161C44.8281 207.2 44.8361 207.245 44.8282 207.29C44.8203 207.334 44.7972 207.374 44.7628 207.403C44.7284 207.432 44.6849 207.448 44.64 207.448V207.436Z" fill="#F5F5F5"/>
<path d="M40.02 205.552C39.9833 205.551 39.9475 205.54 39.9168 205.52C39.8861 205.5 39.8616 205.471 39.846 205.438C39.8257 205.392 39.8243 205.34 39.8423 205.292C39.8603 205.245 39.8961 205.207 39.942 205.186C41.4576 204.59 43.1409 204.579 44.664 205.156C44.6876 205.165 44.7092 205.178 44.7275 205.195C44.7458 205.212 44.7604 205.233 44.7705 205.256C44.7806 205.279 44.7859 205.304 44.7862 205.329C44.7864 205.354 44.7816 205.379 44.772 205.402C44.7532 205.449 44.717 205.486 44.671 205.506C44.625 205.526 44.573 205.528 44.526 205.51C44.526 205.51 42.174 204.586 40.104 205.51C40.0795 205.53 40.0508 205.545 40.02 205.552Z" fill="#F5F5F5"/>
<path d="M39.9779 203.788C39.9417 203.788 39.9061 203.778 39.8753 203.759C39.8445 203.74 39.8198 203.713 39.8039 203.68C39.7832 203.635 39.781 203.583 39.7978 203.536C39.8146 203.489 39.8491 203.45 39.8939 203.428C40.6461 203.085 41.4616 202.903 42.2882 202.894C43.1148 202.885 43.9342 203.048 44.6939 203.374C44.7167 203.384 44.7371 203.399 44.7541 203.418C44.771 203.436 44.784 203.457 44.7924 203.481C44.8008 203.505 44.8044 203.529 44.8029 203.554C44.8015 203.579 44.795 203.604 44.7839 203.626C44.7736 203.649 44.7589 203.669 44.7405 203.686C44.7221 203.703 44.7006 203.716 44.677 203.725C44.6535 203.733 44.6286 203.737 44.6036 203.735C44.5787 203.734 44.5543 203.727 44.5319 203.716C43.8191 203.421 43.0538 203.273 42.2824 203.283C41.511 203.292 40.7494 203.458 40.0439 203.77C40.0231 203.78 40.0008 203.786 39.9779 203.788Z" fill="#F5F5F5"/>
<path d="M39.936 201.814C39.892 201.815 39.8492 201.8 39.8146 201.773C39.78 201.746 39.7558 201.708 39.746 201.665C39.7361 201.622 39.7413 201.577 39.7606 201.538C39.7799 201.498 39.8121 201.467 39.852 201.448C42.138 200.32 44.604 201.4 44.706 201.448C44.7298 201.457 44.7515 201.471 44.7696 201.489C44.7876 201.507 44.8017 201.529 44.8107 201.552C44.8198 201.576 44.8237 201.602 44.8222 201.627C44.8207 201.653 44.8138 201.678 44.802 201.7C44.781 201.746 44.7428 201.782 44.6957 201.8C44.6485 201.818 44.5962 201.816 44.55 201.796C44.55 201.796 42.15 200.746 40.026 201.796C39.9982 201.81 39.9671 201.817 39.936 201.814Z" fill="#F5F5F5"/>
<path d="M41.586 124.276C38.538 132.718 39.072 138.016 39.594 146.866C40.074 154.978 40.836 162.124 40.836 162.124C40.716 163.564 38.712 166.372 38.436 172.732C38.3475 177.21 38.5479 181.69 39.036 186.142C39.036 186.142 43.026 187.6 46.398 186.142C46.398 186.142 49.848 170.908 50.79 163.462C51.606 156.964 53.034 148.66 53.034 148.66L56.034 163.432C55.4476 165.417 55.1465 167.476 55.14 169.546C55.14 173.02 56.754 182.68 56.754 182.68C56.754 182.68 61.224 184.126 64.056 181.612C64.056 181.612 65.178 167.71 65.574 162.412C66.102 155.344 65.334 135.97 63.636 126.052L41.586 124.276Z" fill="#49555B"/>
<path d="M53.0699 148.636L54.3179 137.524C54.3179 137.524 59.9039 136.78 62.4359 134.398C61.7096 135.534 60.7414 136.496 59.6006 137.215C58.4597 137.933 57.1742 138.391 55.8359 138.556L54.0359 148.9L56.0759 163.408L53.0699 148.636Z" fill="#37474F"/>
<path d="M66.882 116.038C64.164 113.242 59.256 106.918 59.256 106.918L56.484 97.318C57.1036 97.3502 57.7244 97.3502 58.344 97.318C61.344 97.516 62.226 97.774 64.092 99.814C65.574 101.44 71.226 109.156 73.188 111.754L78.402 105.112C79.656 103.222 79.452 101.104 80.1 99.562C80.748 98.02 81.798 97.342 82.638 95.962C83.478 94.582 83.676 93.658 84.366 94.372C85.056 95.086 84.258 97.006 84.156 97.444C84.054 97.882 82.998 99.184 84.756 98.506C86.514 97.828 89.226 94.618 89.922 93.964C90.618 93.31 90.99 94.324 90.834 95.128C90.678 95.932 91.434 97.744 91.158 99.07C90.9862 100.404 90.323 101.625 89.298 102.496C88.032 103.768 84.936 105.334 83.724 107.008C82.512 108.682 79.926 113.884 78.324 117.016C76.314 121 74.604 122.314 72.324 120.97C70.044 119.626 67.884 117.076 66.882 116.038Z" fill="#FFA8A7"/>
<path d="M57.366 97.216C58.9001 97.0628 60.4488 97.2682 61.89 97.816C63.516 98.548 64.62 100.12 66.21 102.25C67.8 104.38 70.638 108.106 70.638 108.106C70.638 108.106 69.87 111.34 64.806 114.244L56.538 105.73L57.366 97.216Z" fill="#37474F"/>
<path d="M73.1879 111.748C72.1989 112.681 71.5363 113.907 71.2979 115.246C71.2979 115.246 70.6979 113.32 72.7439 111.154L73.1879 111.748Z" fill="#F28F8F"/>
<path d="M63.354 114.262C67.044 111.226 65.826 107.272 64.482 104.608C61.788 99.2861 58.986 97.1921 57.816 97.2101L50.478 97.2821C46.974 97.7621 44.262 97.5221 43.416 97.7201C41.256 98.2301 41.208 100.006 41.124 102.304C41.034 104.824 39.744 104.398 40.398 108.562C41.1694 110.11 41.8466 111.703 42.426 113.332C42.822 114.772 43.938 117.064 43.344 119.392C43.116 120.292 42.504 121.192 41.586 123.658C40.5451 126.43 39.7716 129.295 39.276 132.214C39.276 132.214 41.418 131.716 43.854 129.124C43.854 129.124 47.184 133.582 55.194 133.132C63.504 132.664 64.236 128.332 64.236 128.332L62.964 120.532C63.156 117.382 63.24 116.242 63.354 114.262Z" fill="#086A84"/>
<path opacity="0.1" d="M58.56 113.476C58.56 113.476 55.56 115.876 52.038 114.724C51.0569 114.43 50.1674 113.89 49.4543 113.154C48.7412 112.419 48.2281 111.514 47.964 110.524C47.964 110.524 47.664 114.514 52.092 115.798C53.2765 116.157 54.5452 116.126 55.7102 115.707C56.8752 115.289 57.8745 114.507 58.56 113.476Z" fill="black"/>
<path d="M37.554 93.7841C36.468 92.9921 30.618 100.822 33.354 102.784C36.09 104.746 39.006 99.1841 38.418 96.5561C37.83 93.9281 37.554 93.7841 37.554 93.7841Z" fill="#37474F"/>
<path d="M32.244 89.8961C33.708 87.8681 34.704 86.3381 36.042 84.5981C36.798 83.6081 37.284 82.9061 38.01 81.8921C38.514 81.1961 38.808 80.6081 39.372 80.3861C40.0016 80.1089 40.5643 79.6997 41.022 79.1861C41.3022 78.8614 41.5608 78.5187 41.796 78.1601C42.6417 76.989 43.6521 75.9462 44.796 75.0641C45.996 74.1341 47.31 73.4141 48.534 72.5261C49.26 71.9981 50.04 71.1281 49.134 70.3421C48.8524 70.1148 48.5181 69.9621 48.162 69.8981C45.978 69.4601 44.088 70.2461 41.964 70.8281C41.0404 71.0798 40.1377 71.4028 39.264 71.7941C38.8303 71.9701 38.4257 72.2109 38.064 72.5081C37.5616 73.0331 37.1554 73.6424 36.864 74.3081C35.934 76.0181 33.972 77.5421 32.598 78.8801C30.984 80.4521 29.544 81.8801 27.702 83.6261C26.046 85.1861 24.42 86.6261 22.902 88.3301C21.648 89.7341 22.134 90.8141 22.302 91.1801C23.382 93.3041 24.558 94.0541 25.974 95.3801C26.442 95.8121 26.916 96.2381 27.39 96.6641C29.226 98.3201 31.062 99.8681 32.97 101.464C35.01 103.144 35.85 103.96 37.668 105.592C38.8152 106.646 39.7713 107.89 40.494 109.27C43.644 109.792 46.74 104.974 44.04 99.3401C43.5959 98.4289 42.9243 97.6477 42.09 97.0721C38.766 94.7021 32.244 89.8961 32.244 89.8961Z" fill="#FFA8A7"/>
<path d="M32.2439 89.8961C31.2613 91.1437 29.9409 92.083 28.4399 92.6021C28.4399 92.6021 30.4499 93.0821 33.1499 90.5681L32.2439 89.8961Z" fill="#F28F8F"/>
<path d="M43.668 97.6721C42.93 97.1621 41.1361 96.0761 37.5541 93.7841C37.5541 93.7841 38.1061 94.9421 37.2361 97.8521C36.3661 100.762 34.5301 102.604 33.3781 102.814C33.3781 102.814 35.3821 104.398 37.2301 106.186C39.0781 107.974 40.5961 109.24 41.6641 111.316C41.6641 111.316 44.3041 110.638 44.9041 106.162C45.3241 103.024 45.072 99.3401 43.668 97.6721Z" fill="#49555B"/>
<path d="M63.708 83.2601C64.2354 82.1454 64.4678 80.9139 64.3827 79.6836C64.2976 78.4533 63.8979 77.2656 63.222 76.2341C60.948 73.0001 57.114 71.4341 52.878 71.4821H51.564C45.846 71.5781 40.65 76.4861 40.548 82.0121C40.548 85.9001 40.548 89.4941 42.69 92.1461C44.664 94.6121 47.742 95.4221 50.34 95.8181C55.308 96.5741 60.888 95.9981 63.144 92.6141C63.144 92.6141 60.144 93.2141 60.522 90.1061C60.576 89.6141 60.108 89.0741 59.286 88.5161C59.8617 87.5187 60.5394 86.5837 61.308 85.7261C62.154 84.8801 63.132 84.4061 63.708 83.2601Z" fill="#263238"/>
<path d="M62.226 86.0981C62.196 91.8881 60.342 93.3461 59.412 93.7781C58.482 94.2101 56.658 93.9821 54.888 93.7241L54.948 97.1981C54.948 97.1981 57.018 99.2921 56.898 100.888C56.778 102.484 53.73 102.688 51.42 101.194C50.1475 100.351 48.9933 99.3425 47.988 98.1941C47.7961 97.9719 47.6879 97.6896 47.682 97.3961L47.538 89.2301C47.538 89.2301 46.59 90.2681 44.862 89.1281C44.4887 88.8999 44.1669 88.5966 43.9171 88.2374C43.6672 87.8783 43.4948 87.4711 43.4107 87.0417C43.3267 86.6123 43.3328 86.1702 43.4287 85.7433C43.5246 85.3164 43.7083 84.9142 43.968 84.5621C44.2121 84.3247 44.5053 84.1438 44.8269 84.0321C45.1485 83.9203 45.4908 83.8805 45.8294 83.9154C46.1681 83.9503 46.4951 84.0591 46.7871 84.2341C47.0792 84.409 47.3294 84.6459 47.52 84.9281C48.048 85.9121 48 86.6081 48.72 86.4941C49.44 86.3801 49.47 85.6001 49.518 85.0421C49.566 84.4841 49.518 84.3041 49.59 83.5721C51.3 83.2061 53.07 80.8241 53.268 79.0841C54.4264 79.6538 55.7031 79.9417 56.994 79.9241C58.908 79.7921 59.898 79.4081 60.84 78.0281C61.0644 78.3438 61.2441 78.6891 61.374 79.0541C61.6405 79.7929 61.8413 80.5539 61.974 81.3281C62.1877 82.9086 62.272 84.5039 62.226 86.0981Z" fill="#FFA8A7"/>
<path d="M54.888 93.7241C53.022 93.5081 49.176 92.4761 48.552 90.9761C48.8042 91.7376 49.2837 92.4035 49.926 92.8841C51.09 93.8441 54.906 94.8821 54.906 94.8821L54.888 93.7241Z" fill="#F28F8F"/>
<path d="M56.766 90.6041C56.7695 90.755 56.7282 90.9036 56.6472 91.0309C56.5661 91.1583 56.4491 91.2587 56.311 91.3195C56.1728 91.3803 56.0197 91.3986 55.871 91.3723C55.7224 91.3459 55.5849 91.2759 55.4761 91.1713C55.3673 91.0667 55.292 90.9322 55.2598 90.7847C55.2275 90.6372 55.2398 90.4835 55.2951 90.343C55.3503 90.2026 55.4461 90.0817 55.5702 89.9957C55.6942 89.9097 55.841 89.8625 55.992 89.8601C56.1931 89.8569 56.3873 89.9333 56.5323 90.0726C56.6772 90.212 56.7613 90.403 56.766 90.6041Z" fill="#B16668"/>
<path d="M55.788 84.9041C55.7978 85.0105 55.7866 85.1179 55.7547 85.22C55.7229 85.322 55.6712 85.4168 55.6026 85.4988C55.534 85.5808 55.4499 85.6484 55.355 85.6977C55.2602 85.747 55.1565 85.777 55.05 85.7861C54.8859 85.8036 54.7203 85.7717 54.5745 85.6945C54.4287 85.6172 54.3092 85.4982 54.2315 85.3526C54.1539 85.207 54.1214 85.0416 54.1384 84.8774C54.1555 84.7133 54.2211 84.558 54.327 84.4314C54.4329 84.3049 54.5742 84.2128 54.7328 84.1671C54.8913 84.1214 55.0599 84.1242 55.2169 84.175C55.3739 84.2258 55.5122 84.3223 55.6139 84.4522C55.7156 84.5821 55.7763 84.7395 55.788 84.9041Z" fill="#263238"/>
<path d="M61.2 84.562C61.215 84.7576 61.1521 84.9511 61.0252 85.1005C60.8982 85.2499 60.7174 85.3432 60.522 85.36C60.4236 85.3721 60.3237 85.3629 60.2292 85.3329C60.1347 85.3029 60.0477 85.2529 59.9743 85.1863C59.9008 85.1197 59.8426 85.038 59.8035 84.9468C59.7645 84.8557 59.7456 84.7572 59.748 84.658C59.7381 84.5609 59.7478 84.4628 59.7764 84.3694C59.805 84.276 59.852 84.1894 59.9146 84.1144C59.9772 84.0395 60.0542 83.9779 60.141 83.9332C60.2278 83.8884 60.3227 83.8615 60.42 83.854C60.617 83.8459 60.8093 83.9156 60.9552 84.0481C61.1012 84.1806 61.1892 84.3652 61.2 84.562Z" fill="#263238"/>
<path d="M57.462 83.8121L58.038 88.6481L60.516 87.6161L57.462 83.8121Z" fill="#F28F8F"/>
<path d="M52.896 82.8161L54.336 81.4481C54.5153 81.6475 54.611 81.9084 54.6032 82.1765C54.5953 82.4446 54.4846 82.6994 54.294 82.8881C54.199 82.9782 54.0867 83.048 53.9639 83.0934C53.8411 83.1387 53.7103 83.1586 53.5796 83.1519C53.4488 83.1452 53.3208 83.1119 53.2033 83.0542C53.0858 82.9964 52.9812 82.9154 52.896 82.8161Z" fill="#263238"/>
<path d="M60.102 81.0041L61.698 82.2041C61.6245 82.3124 61.5296 82.4046 61.4192 82.4749C61.3088 82.5453 61.1851 82.5923 61.0559 82.6131C60.9266 82.6339 60.7945 82.628 60.6676 82.5959C60.5407 82.5637 60.4217 82.5059 60.318 82.4261C60.109 82.2602 59.9705 82.0213 59.9304 81.7575C59.8904 81.4937 59.9516 81.2246 60.102 81.0041Z" fill="#263238"/>
<path d="M37.0981 37.0541C38.2485 36.8347 39.4246 36.7822 40.5901 36.8981C41.7038 36.9958 42.7911 37.2925 43.8001 37.7741C44.7682 38.2362 45.624 38.9037 46.3081 39.7301C47.0293 40.6145 47.5089 41.6709 47.7001 42.7961C47.8799 43.679 47.8799 44.5892 47.7001 45.4721C47.5388 46.2406 47.2637 46.9807 46.8841 47.6681C46.5155 48.337 46.0878 48.9715 45.6061 49.5641C45.1261 50.1641 44.6701 50.7161 44.2441 51.2501C43.8366 51.7527 43.4752 52.2908 43.1641 52.8581C42.8781 53.3617 42.7388 53.9354 42.7621 54.5141C42.7656 54.7831 42.6972 55.0483 42.5641 55.2821C42.5012 55.3926 42.415 55.488 42.3113 55.5616C42.2076 55.6352 42.0891 55.6852 41.9641 55.7081L39.1381 56.2421C39.0038 56.2688 38.8656 56.2682 38.7316 56.2404C38.5976 56.2125 38.4706 56.158 38.3581 56.0801C38.241 56.013 38.1421 55.9184 38.0699 55.8044C37.9978 55.6905 37.9546 55.5606 37.9441 55.4261C37.8063 54.5384 37.8512 53.6318 38.0761 52.7621C38.2894 51.9871 38.602 51.2429 39.0061 50.5481C39.3967 49.8863 39.8444 49.2599 40.3441 48.6761C40.8421 48.0761 41.2921 47.5361 41.7061 47.0081C42.0867 46.5339 42.4165 46.0211 42.6901 45.4781C42.9254 45.0069 42.9992 44.4714 42.9001 43.9541C42.8204 43.4982 42.6306 43.0686 42.3473 42.7026C42.0639 42.3367 41.6955 42.0454 41.2741 41.8541C40.2286 41.379 39.0544 41.2671 37.9381 41.5361C35.8341 41.9361 34.4841 43.2841 33.8881 45.5801C33.8356 45.8221 33.7423 46.0534 33.6121 46.2641C33.4457 46.4564 33.2113 46.5768 32.9581 46.6001L29.9581 47.1701C29.7508 47.207 29.5373 47.1664 29.3581 47.0561C29.2638 46.9938 29.1837 46.9126 29.1227 46.8175C29.0617 46.7224 29.0213 46.6157 29.0041 46.5041C28.8745 45.5576 28.9774 44.5938 29.3041 43.6961C29.6437 42.6592 30.1637 41.6903 30.8401 40.8341C31.5984 39.8965 32.5018 39.0863 33.5161 38.4341C34.6091 37.7459 35.8258 37.2772 37.0981 37.0541ZM42.5761 57.9041C42.8428 57.8579 43.1171 57.9173 43.341 58.0695C43.5649 58.2217 43.7209 58.455 43.7761 58.7201L44.3761 61.9961C44.4034 62.1274 44.4032 62.2629 44.3753 62.3941C44.3474 62.5253 44.2925 62.6493 44.2141 62.7581C44.1403 62.8697 44.045 62.9654 43.9337 63.0396C43.8225 63.1138 43.6974 63.165 43.5661 63.1901L40.3681 63.7901C40.2358 63.8176 40.0993 63.8174 39.9671 63.7895C39.8349 63.7616 39.7099 63.7067 39.6001 63.6281C39.4884 63.5544 39.3927 63.4591 39.3185 63.3478C39.2443 63.2365 39.1932 63.1115 39.1681 62.9801L38.5681 59.7041C38.543 59.5723 38.5449 59.4368 38.5738 59.3058C38.6027 59.1748 38.6579 59.0511 38.7361 58.9421C38.8079 58.8288 38.9027 58.7318 39.0143 58.6574C39.1259 58.583 39.2519 58.5328 39.3841 58.5101L42.5761 57.9041Z" fill="#064A5D"/>
<path d="M67.5901 50.5721C68.2976 50.9645 68.9444 51.4576 69.51 52.0361C70.0599 52.5782 70.5053 53.2168 70.8241 53.9201C71.1298 54.5927 71.2874 55.3232 71.2861 56.0621C71.2853 56.8497 71.0785 57.6233 70.6861 58.3061C70.3921 58.8533 69.9948 59.3383 69.5161 59.7341C69.0872 60.0671 68.6123 60.3359 68.1061 60.5321C67.6141 60.7244 67.1061 60.8729 66.5881 60.9761L65.1241 61.2641C64.6849 61.3485 64.2549 61.4751 63.8401 61.6421C63.4667 61.7807 63.1402 62.0219 62.898 62.3381C62.7801 62.4834 62.6244 62.5934 62.448 62.6561C62.3652 62.6871 62.2765 62.6995 62.1883 62.6922C62.1002 62.685 62.0147 62.6583 61.9381 62.6141L60.2041 61.6421C60.0354 61.5499 59.9103 61.3945 59.8561 61.2101C59.8266 61.1225 59.8177 61.0293 59.8302 60.9377C59.8427 60.8461 59.8762 60.7586 59.9281 60.6821C60.2475 60.1516 60.6723 59.6922 61.1761 59.3321C61.6327 59.0132 62.1288 58.755 62.6521 58.5641C63.1538 58.3856 63.6696 58.2491 64.194 58.1561C64.716 58.0661 65.2021 57.9761 65.6581 57.8801C66.0696 57.7941 66.4715 57.6675 66.8581 57.5021C67.1916 57.355 67.4692 57.1047 67.6501 56.7881C67.8076 56.5097 67.8954 56.1972 67.9059 55.8775C67.9163 55.5577 67.8491 55.2402 67.71 54.9521C67.3673 54.2376 66.7948 53.6587 66.0841 53.3081C65.4718 52.9543 64.7654 52.7979 64.0611 52.8602C63.3567 52.9224 62.6887 53.2004 62.148 53.6561C62.0143 53.7648 61.8618 53.8482 61.698 53.9021C61.5263 53.9306 61.3501 53.892 61.2061 53.7941L59.3581 52.7621C59.2273 52.6886 59.1288 52.5687 59.0821 52.4261C59.0587 52.3516 59.0514 52.2729 59.0607 52.1953C59.07 52.1177 59.0957 52.043 59.1361 51.9761C59.4863 51.4183 59.9659 50.9532 60.5341 50.6201C61.1809 50.2297 61.8919 49.9575 62.6341 49.8161C63.4464 49.6569 64.2792 49.6305 65.1001 49.7381C65.976 49.8534 66.8214 50.1366 67.5901 50.5721ZM61.2661 64.0421C61.3475 64.0873 61.4192 64.1482 61.4769 64.2213C61.5346 64.2945 61.5771 64.3784 61.6021 64.4681C61.6286 64.5566 61.637 64.6495 61.6267 64.7413C61.6164 64.833 61.5876 64.9218 61.5421 65.0021L60.4201 67.0121C60.329 67.1757 60.1769 67.2965 59.997 67.3483C59.8171 67.4 59.624 67.3784 59.4601 67.2881L57.4981 66.1901C57.4155 66.1473 57.3432 66.087 57.2862 66.0134C57.2292 65.9399 57.1889 65.8548 57.1681 65.7641C57.1395 65.6762 57.1296 65.5834 57.1389 65.4914C57.1482 65.3995 57.1765 65.3105 57.2221 65.2301L58.3441 63.2201C58.3896 63.1396 58.4507 63.0689 58.5238 63.0122C58.597 62.9555 58.6807 62.914 58.7701 62.8901C58.8583 62.8621 58.9514 62.853 59.0434 62.8633C59.1354 62.8736 59.2242 62.9032 59.3041 62.9501L61.2661 64.0421Z" fill="#086A84"/>
<g opacity="0.2">
<path d="M67.5901 50.5721C68.2976 50.9645 68.9444 51.4576 69.51 52.0361C70.0599 52.5782 70.5053 53.2168 70.8241 53.9201C71.1298 54.5927 71.2874 55.3232 71.2861 56.0621C71.2853 56.8497 71.0785 57.6233 70.6861 58.3061C70.3921 58.8533 69.9948 59.3383 69.5161 59.7341C69.0872 60.0671 68.6123 60.3359 68.1061 60.5321C67.6141 60.7244 67.1061 60.8729 66.5881 60.9761L65.1241 61.2641C64.6849 61.3485 64.2549 61.4751 63.8401 61.6421C63.4667 61.7807 63.1402 62.0219 62.898 62.3381C62.7801 62.4834 62.6244 62.5934 62.448 62.6561C62.3652 62.6871 62.2765 62.6995 62.1883 62.6922C62.1002 62.685 62.0147 62.6583 61.9381 62.6141L60.2041 61.6421C60.0354 61.5499 59.9103 61.3945 59.8561 61.2101C59.8266 61.1225 59.8177 61.0293 59.8302 60.9377C59.8427 60.8461 59.8762 60.7586 59.9281 60.6821C60.2475 60.1516 60.6723 59.6922 61.1761 59.3321C61.6327 59.0132 62.1288 58.755 62.6521 58.5641C63.1538 58.3856 63.6696 58.2491 64.194 58.1561C64.716 58.0661 65.2021 57.9761 65.6581 57.8801C66.0696 57.7941 66.4715 57.6675 66.8581 57.5021C67.1916 57.355 67.4692 57.1047 67.6501 56.7881C67.8076 56.5097 67.8954 56.1972 67.9059 55.8775C67.9163 55.5577 67.8491 55.2402 67.71 54.9521C67.3673 54.2376 66.7948 53.6587 66.0841 53.3081C65.4718 52.9543 64.7654 52.7979 64.0611 52.8602C63.3567 52.9224 62.6887 53.2004 62.148 53.6561C62.0143 53.7648 61.8618 53.8482 61.698 53.9021C61.5263 53.9306 61.3501 53.892 61.2061 53.7941L59.3581 52.7621C59.2273 52.6886 59.1288 52.5687 59.0821 52.4261C59.0587 52.3516 59.0514 52.2729 59.0607 52.1953C59.07 52.1177 59.0957 52.043 59.1361 51.9761C59.4863 51.4183 59.9659 50.9532 60.5341 50.6201C61.1809 50.2297 61.8919 49.9575 62.6341 49.8161C63.4464 49.6569 64.2792 49.6305 65.1001 49.7381C65.976 49.8534 66.8214 50.1366 67.5901 50.5721ZM61.2661 64.0421C61.3475 64.0873 61.4192 64.1482 61.4769 64.2213C61.5346 64.2945 61.5771 64.3784 61.6021 64.4681C61.6286 64.5566 61.637 64.6495 61.6267 64.7413C61.6164 64.833 61.5876 64.9218 61.5421 65.0021L60.4201 67.0121C60.329 67.1757 60.1769 67.2965 59.997 67.3483C59.8171 67.4 59.624 67.3784 59.4601 67.2881L57.4981 66.1901C57.4155 66.1473 57.3432 66.087 57.2862 66.0134C57.2292 65.9399 57.1889 65.8548 57.1681 65.7641C57.1395 65.6762 57.1296 65.5834 57.1389 65.4914C57.1482 65.3995 57.1765 65.3105 57.2221 65.2301L58.3441 63.2201C58.3896 63.1396 58.4507 63.0689 58.5238 63.0122C58.597 62.9555 58.6807 62.914 58.7701 62.8901C58.8583 62.8621 58.9514 62.853 59.0434 62.8633C59.1354 62.8736 59.2242 62.9032 59.3041 62.9501L61.2661 64.0421Z" fill="black"/>
</g>
<path d="M25.326 72.6041C25.4059 72.5286 25.5002 72.47 25.6033 72.4318C25.7064 72.3937 25.8162 72.3767 25.926 72.3821C26.0386 72.3836 26.1497 72.4078 26.2528 72.4531C26.3559 72.4985 26.4488 72.5641 26.526 72.6461L28.374 74.6501C28.45 74.7318 28.5091 74.8278 28.5479 74.9325C28.5867 75.0372 28.6043 75.1485 28.5999 75.2601C28.5954 75.3716 28.5689 75.4812 28.5219 75.5824C28.4749 75.6837 28.4083 75.7747 28.326 75.8501L26.37 77.6501C26.2883 77.7261 26.1923 77.7852 26.0876 77.824C25.9829 77.8627 25.8716 77.8804 25.76 77.8759C25.6485 77.8715 25.5389 77.845 25.4376 77.798C25.3364 77.751 25.2454 77.6844 25.17 77.6021L23.322 75.5981C23.2452 75.5167 23.1855 75.4208 23.1463 75.3161C23.107 75.2113 23.0891 75.0998 23.0936 74.988C23.0981 74.8762 23.1248 74.7664 23.1723 74.6651C23.2198 74.5638 23.287 74.473 23.37 74.3981L25.326 72.6041ZM12.486 60.5141C13.1876 59.8584 13.9797 59.3068 14.838 58.8761C15.6531 58.4641 16.5347 58.2 17.442 58.0961C18.313 57.9999 19.1944 58.0899 20.028 58.3601C20.9136 58.6623 21.7055 59.1896 22.326 59.8901C22.8452 60.4176 23.2533 61.044 23.526 61.7321C23.7461 62.3357 23.8755 62.9685 23.91 63.6101C23.9443 64.2346 23.9242 64.861 23.85 65.4821C23.772 66.0821 23.7 66.6821 23.634 67.2401C23.5689 67.7654 23.5508 68.2955 23.58 68.8241C23.6 69.2991 23.7539 69.7588 24.024 70.1501C24.1403 70.3294 24.2066 70.5365 24.216 70.7501C24.2212 70.8552 24.2023 70.9602 24.1607 71.0569C24.1191 71.1536 24.0559 71.2395 23.976 71.3081L22.248 72.9101C22.0841 73.0587 21.8691 73.1382 21.648 73.1321C21.5383 73.1361 21.4292 73.1137 21.33 73.0667C21.2308 73.0197 21.1444 72.9495 21.078 72.8621C20.5979 72.3039 20.2348 71.6551 20.01 70.9541C19.8221 70.3244 19.7172 69.6729 19.698 69.0161C19.6793 68.3821 19.7154 67.7478 19.806 67.1201C19.896 66.5201 19.968 65.9201 20.028 65.3801C20.0818 64.8835 20.0818 64.3826 20.028 63.8861C19.9889 63.4583 19.8096 63.0555 19.518 62.7401C19.2643 62.459 18.946 62.2438 18.5906 62.1131C18.2352 61.9825 17.8534 61.9402 17.478 61.9901C16.5522 62.1098 15.6917 62.5316 15.03 63.1901C13.742 64.3901 13.388 65.9121 13.968 67.7561C14.0392 67.9481 14.0757 68.1513 14.076 68.3561C14.0612 68.4571 14.0265 68.5541 13.974 68.6416C13.9214 68.7292 13.8521 68.8054 13.77 68.8661L11.928 70.5701C11.7993 70.6944 11.627 70.7633 11.448 70.7621C11.3564 70.7605 11.2661 70.7394 11.1833 70.7001C11.1005 70.6607 11.0271 70.6041 10.968 70.5341C10.4579 69.9439 10.1014 69.237 9.93001 68.4761C9.72642 67.6053 9.67969 66.7052 9.79201 65.8181C9.91522 64.8456 10.1948 63.8993 10.62 63.0161C11.0729 62.0683 11.7068 61.2184 12.486 60.5141Z" fill="#086A84"/>
<g opacity="0.6">
<path d="M25.326 72.6041C25.4059 72.5286 25.5002 72.47 25.6033 72.4318C25.7064 72.3937 25.8162 72.3767 25.926 72.3821C26.0386 72.3836 26.1497 72.4078 26.2528 72.4531C26.3559 72.4985 26.4488 72.5641 26.526 72.6461L28.374 74.6501C28.45 74.7318 28.5091 74.8278 28.5479 74.9325C28.5867 75.0372 28.6043 75.1485 28.5999 75.2601C28.5954 75.3716 28.5689 75.4812 28.5219 75.5824C28.4749 75.6837 28.4083 75.7747 28.326 75.8501L26.37 77.6501C26.2883 77.7261 26.1923 77.7852 26.0876 77.824C25.9829 77.8627 25.8716 77.8804 25.76 77.8759C25.6485 77.8715 25.5389 77.845 25.4376 77.798C25.3364 77.751 25.2454 77.6844 25.17 77.6021L23.322 75.5981C23.2452 75.5167 23.1855 75.4208 23.1463 75.3161C23.107 75.2113 23.0891 75.0998 23.0936 74.988C23.0981 74.8762 23.1248 74.7664 23.1723 74.6651C23.2198 74.5638 23.287 74.473 23.37 74.3981L25.326 72.6041ZM12.486 60.5141C13.1876 59.8584 13.9797 59.3068 14.838 58.8761C15.6531 58.4641 16.5347 58.2 17.442 58.0961C18.313 57.9999 19.1944 58.0899 20.028 58.3601C20.9136 58.6623 21.7055 59.1896 22.326 59.8901C22.8452 60.4176 23.2533 61.044 23.526 61.7321C23.7461 62.3357 23.8755 62.9685 23.91 63.6101C23.9443 64.2346 23.9242 64.861 23.85 65.4821C23.772 66.0821 23.7 66.6821 23.634 67.2401C23.5689 67.7654 23.5508 68.2955 23.58 68.8241C23.6 69.2991 23.7539 69.7588 24.024 70.1501C24.1403 70.3294 24.2066 70.5365 24.216 70.7501C24.2212 70.8552 24.2023 70.9602 24.1607 71.0569C24.1191 71.1536 24.0559 71.2395 23.976 71.3081L22.248 72.9101C22.0841 73.0587 21.8691 73.1382 21.648 73.1321C21.5383 73.1361 21.4292 73.1137 21.33 73.0667C21.2308 73.0197 21.1444 72.9495 21.078 72.8621C20.5979 72.3039 20.2348 71.6551 20.01 70.9541C19.8221 70.3244 19.7172 69.6729 19.698 69.0161C19.6793 68.3821 19.7154 67.7478 19.806 67.1201C19.896 66.5201 19.968 65.9201 20.028 65.3801C20.0818 64.8835 20.0818 64.3826 20.028 63.8861C19.9889 63.4583 19.8096 63.0555 19.518 62.7401C19.2643 62.459 18.946 62.2438 18.5906 62.1131C18.2352 61.9825 17.8534 61.9402 17.478 61.9901C16.5522 62.1098 15.6917 62.5316 15.03 63.1901C13.742 64.3901 13.388 65.9121 13.968 67.7561C14.0392 67.9481 14.0757 68.1513 14.076 68.3561C14.0612 68.4571 14.0265 68.5541 13.974 68.6416C13.9214 68.7292 13.8521 68.8054 13.77 68.8661L11.928 70.5701C11.7993 70.6944 11.627 70.7633 11.448 70.7621C11.3564 70.7605 11.2661 70.7394 11.1833 70.7001C11.1005 70.6607 11.0271 70.6041 10.968 70.5341C10.4579 69.9439 10.1014 69.237 9.93001 68.4761C9.72642 67.6053 9.67969 66.7052 9.79201 65.8181C9.91522 64.8456 10.1948 63.8993 10.62 63.0161C11.0729 62.0683 11.7068 61.2184 12.486 60.5141Z" fill="white"/>
</g>
<path d="M147.504 114.466C145.794 113.488 138.594 109.324 136.146 107.908C135.66 107.632 135.354 107.452 135.33 107.434C134.113 106.756 132.691 106.542 131.328 106.834C130.158 107.072 129.038 107.508 128.016 108.124C127.848 108.22 127.68 108.334 127.518 108.442C124.752 110.188 122.376 112.936 120.396 116.716C118.38 120.398 117.298 124.519 117.246 128.716C117.246 132.692 118.306 135.482 120.426 137.086C120.641 137.246 120.865 137.392 121.098 137.524C123.084 138.652 133.044 144.424 133.266 144.55H133.32C133.075 144.416 132.84 144.263 132.618 144.094C130.494 142.494 129.434 139.706 129.438 135.73C129.49 131.533 130.572 127.412 132.588 123.73C134.68 119.73 137.218 116.864 140.202 115.132C143.042 113.492 145.494 113.278 147.558 114.49L147.504 114.466Z" fill="#086A84"/>
<path opacity="0.4" d="M147.558 114.502C145.494 113.302 143.042 113.514 140.202 115.138C137.43 116.738 135.04 119.338 133.032 122.938L120.84 115.876C122.724 112.51 124.95 110.032 127.512 108.418C127.674 108.316 127.842 108.196 128.01 108.1C129.031 107.483 130.152 107.048 131.322 106.816C132.685 106.521 134.108 106.734 135.324 107.416L136.14 107.89C138.588 109.3 145.788 113.464 147.498 114.442L147.558 114.502Z" fill="black"/>
<path opacity="0.3" d="M133.32 144.532H133.266C133.044 144.406 123.066 138.634 121.098 137.506C120.865 137.374 120.641 137.228 120.426 137.068C118.306 135.468 117.246 132.68 117.246 128.704C117.297 124.506 118.378 120.386 120.396 116.704C120.54 116.422 120.69 116.146 120.846 115.882L133.032 122.92C132.882 123.184 132.732 123.46 132.588 123.736C130.572 127.418 129.49 131.539 129.438 135.736C129.438 139.712 130.498 142.5 132.618 144.1C132.841 144.261 133.076 144.406 133.32 144.532Z" fill="black"/>
<path d="M142.188 11.506C148.104 8.08599 153.14 6.63199 157.296 7.14399C158.987 7.34605 160.62 7.88899 162.096 8.73999C162.055 8.71821 162.015 8.69418 161.976 8.66799C160.548 7.86399 151.944 2.90199 149.976 1.74399C148.475 0.866581 146.807 0.310824 145.08 0.111994C140.92 -0.396006 135.882 1.05599 129.966 4.46799C120.766 9.77599 113.366 17.576 107.766 27.868C102.166 38.16 99.396 48.666 99.456 59.386L111.642 66.424C111.558 55.696 114.328 45.188 119.952 34.9C125.576 24.612 132.988 16.814 142.188 11.506Z" fill="#086A84"/>
<path opacity="0.2" d="M162 8.67411C160.546 7.86418 158.948 7.34455 157.296 7.1441C153.144 6.6321 148.108 8.0861 142.188 11.5061C132.988 16.8101 125.588 24.6101 119.988 34.9061C119.754 35.3321 119.526 35.7641 119.304 36.1901L107.088 29.1401C107.31 28.7141 107.538 28.2821 107.772 27.8561C113.396 17.5721 120.796 9.7721 129.972 4.4561C135.896 1.04011 140.934 -0.411894 145.086 0.100106C146.814 0.300954 148.481 0.858751 149.982 1.73811C151.968 2.90811 160.572 7.87611 162 8.67411Z" fill="black"/>
<path opacity="0.3" d="M119.274 36.1781C114.11 46.0541 111.568 56.1321 111.648 66.4121L99.462 59.3741C99.386 49.0901 101.928 39.0121 107.088 29.1401L119.274 36.1781Z" fill="black"/>
<path d="M150.468 31.4501C148.256 30.2741 145.302 30.7341 141.606 32.8301C141.481 35.0291 141.028 37.1971 140.262 39.2621C139.338 41.7501 136.65 46.8821 132.198 54.6581C127.586 62.6981 124.25 70.3761 122.19 77.6921C120.147 84.9153 119.109 92.3856 119.106 99.8921L119.166 103.63L127.482 108.43L131.358 110.668L131.292 106.924V106.876C131.305 99.3939 132.343 91.9488 134.376 84.7481C136.436 77.4321 139.774 69.7561 144.39 61.7201C148.838 53.9441 151.524 48.8101 152.448 46.3181C153.371 43.8545 153.842 41.2448 153.84 38.6141C153.84 35.0341 152.716 32.6461 150.468 31.4501Z" fill="#086A84"/>
<path opacity="0.3" d="M151.254 49.0121C149.878 51.8761 147.59 56.1041 144.39 61.6961C139.77 69.7361 136.432 77.4141 134.376 84.7301C132.341 91.9364 131.303 99.3878 131.292 106.876V106.972L131.358 110.716L127.482 108.484L119.166 103.684L119.106 99.9401C119.11 92.4336 120.147 84.9633 122.19 77.7401C124.25 70.4241 127.586 62.7461 132.198 54.7061C135.398 49.1061 137.69 44.8801 139.074 42.0281L151.254 49.0121Z" fill="black"/>
<path opacity="0.4" d="M153.84 38.6141C153.841 41.2364 153.372 43.8377 152.454 46.2941C152.196 46.9961 151.794 47.9021 151.254 49.0121L139.074 41.9801C139.606 40.8681 140.006 39.9621 140.274 39.2621C141.04 37.1971 141.493 35.0291 141.618 32.8301C145.314 30.7341 148.268 30.2741 150.48 31.4501C152.692 32.6261 153.812 35.0141 153.84 38.6141Z" fill="black"/>
<path d="M128.142 56.8841L111.648 66.4121C111.564 55.6841 114.334 45.1761 119.958 34.8881C125.582 24.6001 132.982 16.8001 142.158 11.4881C148.074 8.06813 153.11 6.61413 157.266 7.12613C161.422 7.63813 164.748 9.91613 167.244 13.9601C169.744 18.0041 170.994 23.0481 170.994 29.0921C170.969 32.6011 170.567 36.0972 169.794 39.5201C168.859 43.6146 167.597 47.6275 166.02 51.5201C165.012 54.0641 162.598 58.7601 158.778 65.6081C155.126 72.1361 152.838 76.5781 151.914 78.9341C150.888 81.7308 150.127 84.6174 149.64 87.5561C148.914 91.9485 148.512 96.3886 148.44 100.84L131.382 110.692L131.316 106.948C131.319 99.4416 132.357 91.9714 134.4 84.7481C136.46 77.4321 139.798 69.7561 144.414 61.7201C148.862 53.9441 151.548 48.8101 152.472 46.3181C153.387 43.853 153.85 41.2434 153.84 38.6141C153.84 35.0141 152.718 32.6261 150.474 31.4501C148.23 30.2741 145.218 30.7661 141.438 32.9261C137.574 35.1581 134.404 38.5061 131.928 42.9701C129.507 47.212 128.204 52.0001 128.142 56.8841Z" fill="#086A84"/>
<path d="M140.172 115.174C143.232 113.402 145.844 113.292 148.008 114.844C150.172 116.396 151.254 119.158 151.254 123.13C151.188 127.351 150.086 131.49 148.044 135.184C145.908 139.244 143.326 142.148 140.298 143.896C137.27 145.644 134.698 145.716 132.582 144.112C130.462 142.512 129.402 139.722 129.402 135.742C129.454 131.545 130.536 127.424 132.552 123.742C134.652 119.75 137.192 116.894 140.172 115.174Z" fill="#086A84"/>
</svg>
